# xmcd
#
# Track frame offsets:
#	150
#	15453
#	29170
#	46945
#	60940
#	79878
#	90528
#	105338
#	116990
#	132605
#	146893
#	164913
#	176263
#	189043
#	200678
#	220138
#	233583
#	246993
#	264673
#	281151
#
# Disc length: 3961 seconds
#
# Revision: 0
# Processed by: cddbd v1.5.1PL0 Copyright (c) Steve Scherf et al.
# Submitted via: MusicWizard 7.1.1b
#
DISCID=260f7714
DTITLE=Hank Williams Jr. - The Early Years Complete
DYEAR=1986
DGENRE=Country
TTITLE0=I'm Not Responsible
TTITLE1=How's My Ex Treating You?
TTITLE2=You're Gonna Change {or I'm Gonna Leave}
TTITLE3=All By Myself
TTITLE4=One Night Stands
TTITLE5=Tennessee
TTITLE6=Once And For All
TTITLE7=Mobile Boogie
TTITLE8=Storms Never Last
TTITLE9=It's Different With You
TTITLE10=Feelin' Better
TTITLE11=She's Still The Star {on The Stage Of My Mind}
TTITLE12=Honey, Won't You Call Me
TTITLE13=Building Memories
TTITLE14=New South
TTITLE15=Long Way To Hollywood
TTITLE16=Angels Get Lonesome Sometimes
TTITLE17=Mongomery In The Rain
TTITLE18=Looking At The Rain
TTITLE19=You Love The Thunder
EXTD=(c)1986 Warner Bros - CURB Records - WEA\nupc 07599255141
EXTT0=
EXTT1=
EXTT2=
EXTT3=
EXTT4=
EXTT5=
EXTT6=
EXTT7=
EXTT8=
EXTT9=
EXTT10=
EXTT11=
EXTT12=
EXTT13=
EXTT14=
EXTT15=
EXTT16=
EXTT17=
EXTT18=
EXTT19=
PLAYORDER=
